<svg width="40" height="40" viewBox="0 0 40 40" fill="none" xmlns="http://www.w3.org/2000/svg">
<path fill-rule="evenodd" clip-rule="evenodd" d="M36 20C36 28.8366 28.8366 36 20 36C11.1634 36 4 28.8366 4 20C4 11.1634 11.1634 4 20 4C28.8366 4 36 11.1634 36 20ZM40 20C40 31.0457 31.0457 40 20 40C8.9543 40 0 31.0457 0 20C0 8.9543 8.9543 0 20 0C31.0457 0 40 8.9543 40 20ZM27 20C27 23.866 23.866 27 20 27C16.134 27 13 23.866 13 20C13 16.134 16.134 13 20 13C23.866 13 27 16.134 27 20ZM31 20C31 26.0751 26.0751 31 20 31C13.9249 31 9 26.0751 9 20C9 13.9249 13.9249 9 20 9C26.0751 9 31 13.9249 31 20Z" fill="#FDFDFD"/>
</svg>
